<mxfile host="app.diagrams.net" modified="2023-01-19T12:16:29.230Z" agent="5.0 (Windows NT 10.0; Win64; x64) AppleWebKit/537.36 (KHTML, like Gecko) Chrome/109.0.0.0 Safari/537.36" etag="5FG7h5WGgIl4UOx70uPF" version="20.2.3" type="github">
  <diagram id="kcdtvtUuouSTzEmoT8WX" name="Page-1">
    <mxGraphModel dx="711" dy="381" grid="1" gridSize="10" guides="1" tooltips="1" connect="1" arrows="1" fold="1" page="1" pageScale="1" pageWidth="827" pageHeight="1169" math="0" shadow="0">
      <root>
        <mxCell id="0" />
        <mxCell id="1" parent="0" />
        <mxCell id="JEbB6z0hx3I5MV0OKVah-1" value="&lt;br&gt;&lt;br&gt;&lt;font style=&quot;&quot; face=&quot;Comic Sans MS&quot;&gt;&lt;span style=&quot;font-size: 11px;&quot;&gt;&lt;br&gt;&lt;br&gt;&lt;br&gt;ToDo App User&lt;/span&gt;&lt;br&gt;&lt;div style=&quot;&quot;&gt;&lt;font style=&quot;font-size: 7px;&quot;&gt;Uses app to manage their Trello board&lt;/font&gt;&lt;/div&gt;&lt;/font&gt;" style="shape=actor;whiteSpace=wrap;html=1;fillColor=#cce5ff;strokeColor=#36393d;" parent="1" vertex="1">
          <mxGeometry x="340" y="80" width="100" height="130" as="geometry" />
        </mxCell>
        <mxCell id="OSeTTw16pG-JO05INmUS-6" value="" style="endArrow=classic;html=1;rounded=0;fontFamily=Comic Sans MS;fontSize=7;fontColor=#000000;" edge="1" parent="1">
          <mxGeometry relative="1" as="geometry">
            <mxPoint x="389.76" y="210" as="sourcePoint" />
            <mxPoint x="390" y="320" as="targetPoint" />
          </mxGeometry>
        </mxCell>
        <mxCell id="OSeTTw16pG-JO05INmUS-7" value="Opens&amp;nbsp; Trello To-Do Website&lt;br&gt;" style="edgeLabel;resizable=0;html=1;align=center;verticalAlign=middle;fontFamily=Comic Sans MS;fontSize=7;fontColor=#000000;" connectable="0" vertex="1" parent="OSeTTw16pG-JO05INmUS-6">
          <mxGeometry relative="1" as="geometry">
            <mxPoint y="5" as="offset" />
          </mxGeometry>
        </mxCell>
        <mxCell id="OSeTTw16pG-JO05INmUS-9" value="" style="rounded=0;whiteSpace=wrap;html=1;fontFamily=Comic Sans MS;fontSize=7;labelBackgroundColor=default;fillColor=#0050ef;strokeColor=#001DBC;fontColor=#ffffff;" vertex="1" parent="1">
          <mxGeometry x="325" y="320" width="130" height="80" as="geometry" />
        </mxCell>
        <mxCell id="OSeTTw16pG-JO05INmUS-10" value="To-Do App &lt;br&gt;&lt;font style=&quot;font-size: 6px;&quot;&gt;Website&lt;/font&gt;" style="text;html=1;align=center;verticalAlign=top;whiteSpace=wrap;rounded=0;labelBackgroundColor=none;fontFamily=Comic Sans MS;fontSize=9;fontColor=#FFFFFF;fontStyle=1" vertex="1" parent="1">
          <mxGeometry x="327.5" y="320" width="125" height="80" as="geometry" />
        </mxCell>
        <mxCell id="OSeTTw16pG-JO05INmUS-11" value="Allows the user to see all Trello items and quickly mark them as Done" style="text;html=1;strokeColor=none;fillColor=none;align=center;verticalAlign=middle;whiteSpace=wrap;rounded=0;labelBackgroundColor=none;fontFamily=Comic Sans MS;fontSize=6;fontColor=#FFFFFF;" vertex="1" parent="1">
          <mxGeometry x="360" y="360" width="60" height="30" as="geometry" />
        </mxCell>
      </root>
    </mxGraphModel>
  </diagram>
</mxfile>
